<svg xmlns="http://www.w3.org/2000/svg" version="1.1" xmlns:xlink="http://www.w3.org/1999/xlink" xmlns:svgjs="http://svgjs.dev/svgjs" width="1000" height="750" viewBox="0 0 1000 750"><rect width="1000" height="750" fill="#f8f8f8"></rect><g transform="matrix(0.6410537870472008,0,0,0.6410537870472008,179.89858407467239,83.23643724696356)"><svg viewBox="0 0 271 247" data-background-color="#f8f8f8" preserveAspectRatio="xMidYMid meet" height="911" width="1000" xmlns="http://www.w3.org/2000/svg" xmlns:xlink="http://www.w3.org/1999/xlink"><g id="tight-bounds" transform="matrix(1,0,0,1,-0.17986701188215193,-0.09999999999999432)"><svg viewBox="0 0 271.3597340237643 247.2" height="247.2" width="271.3597340237643"><g><svg viewBox="0 0 395.52 360.3060135349248" height="247.2" width="271.3597340237643"><g transform="matrix(1,0,0,1,0,304.1535055169646)"><svg viewBox="0 0 395.52 56.15250801796022" height="56.15250801796022" width="395.52"><g id="textblocktransform"><svg viewBox="0 0 395.52 56.15250801796022" height="56.15250801796022" width="395.52" id="textblock"><g><svg viewBox="0 0 395.52 56.15250801796022" height="56.15250801796022" width="395.52"><g transform="matrix(1,0,0,1,0,0)"><svg width="395.52" viewBox="1.7999999523162842 -32.5 233.8300018310547 33.20000076293945" height="56.15250801796022" data-palette-color="#2ecbcb"><path d="M20.85 0.4Q19.9-0.35 19.33-1.25 18.75-2.15 18.25-3.6L18.25-3.6Q17.25-1.65 15.28-0.58 13.3 0.5 10.5 0.5L10.5 0.5Q6.55 0.5 4.17-1.6 1.8-3.7 1.8-7.3L1.8-7.3Q1.8-11.1 4.48-13.2 7.15-15.3 12.05-15.3L12.05-15.3 17.85-15.3 17.85-17.1Q17.85-20.1 16.55-21.55 15.25-23 12.55-23L12.55-23Q10.55-23 8.45-22.28 6.35-21.55 4.7-20.3L4.7-20.3 3.35-22.5Q5.2-24.05 7.63-24.88 10.05-25.7 12.6-25.7L12.6-25.7Q16.65-25.7 18.75-23.63 20.85-21.55 20.85-17.65L20.85-17.65 20.85-7.2Q20.85-3.35 22.8-1.25L22.8-1.25 20.85 0.4ZM10.55-2.2Q13.9-2.2 15.88-4.05 17.85-5.9 17.85-8.85L17.85-8.85 17.85-12.6 12.75-12.6Q8.5-12.6 6.65-11.38 4.8-10.15 4.8-7.35L4.8-7.35Q4.8-4.85 6.3-3.53 7.8-2.2 10.55-2.2L10.55-2.2ZM28.75 0L28.75-25.05 31.75-25.05 31.75 0 28.75 0ZM30.15-28.25Q29.3-28.25 28.67-28.88 28.05-29.5 28.05-30.35L28.05-30.35Q28.05-31.25 28.67-31.88 29.3-32.5 30.15-32.5L30.15-32.5Q31.05-32.5 31.67-31.88 32.3-31.25 32.3-30.35L32.3-30.35Q32.3-29.5 31.67-28.88 31.05-28.25 30.15-28.25L30.15-28.25ZM49.9-25.5Q51.4-25.5 52.9-25.05L52.9-25.05 52.9-22.25Q51.45-22.6 50-22.6L50-22.6Q47.45-22.6 45.85-21.35L45.85-21.35Q44.25-20.1 43-17.8L43-17.8 43 0 40 0 40-17.5Q40-21.45 37.9-23.3L37.9-23.3 39.9-25.3Q40.8-24.75 41.6-23.65 42.4-22.55 42.75-21.2L42.75-21.2Q44.15-23.5 45.55-24.35L45.55-24.35Q47.3-25.5 49.9-25.5L49.9-25.5ZM67.59 0.5Q64.04 0.5 61.27-1.15 58.49-2.8 56.94-5.75 55.39-8.7 55.39-12.45L55.39-12.45Q55.39-16.2 56.97-19.18 58.54-22.15 61.32-23.83 64.09-25.5 67.64-25.5L67.64-25.5Q71.14-25.5 73.92-23.83 76.69-22.15 78.27-19.2 79.84-16.25 79.84-12.5L79.84-12.5Q79.84-8.75 78.27-5.8 76.69-2.85 73.92-1.18 71.14 0.5 67.59 0.5L67.59 0.5ZM67.64-2.2Q71.79-2.2 74.32-5.05 76.84-7.9 76.84-12.5L76.84-12.5Q76.84-15.55 75.69-17.88 74.54-20.2 72.44-21.5 70.34-22.8 67.64-22.8L67.64-22.8Q64.89-22.8 62.79-21.5 60.69-20.2 59.54-17.82 58.39-15.45 58.39-12.45L58.39-12.45Q58.39-9.45 59.54-7.13 60.69-4.8 62.79-3.5 64.89-2.2 67.64-2.2L67.64-2.2ZM85.89-17.65Q85.89-21.5 83.84-23.55L83.84-23.55 85.74-25.4Q87.94-23.85 88.54-20.9L88.54-20.9Q90.19-23.25 92.24-24.38 94.29-25.5 97.19-25.5L97.19-25.5Q101.09-25.5 103.27-23.4 105.44-21.3 105.39-17.35L105.39-17.35 105.24 0 102.34 0 102.39-16.8Q102.39-22.8 96.94-22.8L96.94-22.8Q94.39-22.8 92.62-21.58 90.84-20.35 88.89-17.7L88.89-17.7 88.89 0 85.89 0 85.89-17.65ZM129.74 0.4Q128.79-0.35 128.21-1.25 127.64-2.15 127.14-3.6L127.14-3.6Q126.14-1.65 124.16-0.58 122.19 0.5 119.39 0.5L119.39 0.5Q115.44 0.5 113.06-1.6 110.69-3.7 110.69-7.3L110.69-7.3Q110.69-11.1 113.36-13.2 116.04-15.3 120.94-15.3L120.94-15.3 126.74-15.3 126.74-17.1Q126.74-20.1 125.44-21.55 124.14-23 121.44-23L121.44-23Q119.44-23 117.34-22.28 115.24-21.55 113.59-20.3L113.59-20.3 112.24-22.5Q114.09-24.05 116.51-24.88 118.94-25.7 121.49-25.7L121.49-25.7Q125.54-25.7 127.64-23.63 129.74-21.55 129.74-17.65L129.74-17.65 129.74-7.2Q129.74-3.35 131.69-1.25L131.69-1.25 129.74 0.4ZM119.44-2.2Q122.79-2.2 124.76-4.05 126.74-5.9 126.74-8.85L126.74-8.85 126.74-12.6 121.64-12.6Q117.39-12.6 115.54-11.38 113.69-10.15 113.69-7.35L113.69-7.35Q113.69-4.85 115.19-3.53 116.69-2.2 119.44-2.2L119.44-2.2ZM145.64 0.4Q141.44 0.4 139.26-1.7 137.09-3.8 137.09-7.7L137.09-7.7 137.09-25 140.09-25 140.09-8.25Q140.09-5.45 141.39-3.88 142.69-2.3 145.79-2.3L145.79-2.3Q148.39-2.3 150.11-3.58 151.84-4.85 153.74-7.45L153.74-7.45 153.74-25 156.74-25 156.74-7.35Q156.74-3.45 158.69-1.45L158.69-1.45 156.84 0.35Q155.74-0.45 155.01-1.73 154.29-3 154.04-4.3L154.04-4.3Q152.44-1.8 150.36-0.7 148.29 0.4 145.64 0.4L145.64 0.4ZM171.78 0.7Q168.18 0.7 166.41-1.2 164.63-3.1 164.63-7.2L164.63-7.2 164.63-31.25 167.63-31.25 167.63-25 175.48-25 175.48-22.3 167.63-22.3 167.63-7.2Q167.63-4.05 168.81-3.03 169.98-2 171.73-2L171.73-2Q172.78-2 173.48-2.13 174.18-2.25 175.03-2.75L175.03-2.75 176.38-0.45Q174.53 0.7 171.78 0.7L171.78 0.7ZM181.63 0L181.63-25.05 184.63-25.05 184.63 0 181.63 0ZM183.03-28.25Q182.18-28.25 181.56-28.88 180.93-29.5 180.93-30.35L180.93-30.35Q180.93-31.25 181.56-31.88 182.18-32.5 183.03-32.5L183.03-32.5Q183.93-32.5 184.56-31.88 185.18-31.25 185.18-30.35L185.18-30.35Q185.18-29.5 184.56-28.88 183.93-28.25 183.03-28.25L183.03-28.25ZM202.48 0.35Q197.03 0.35 193.9-3 190.78-6.35 190.78-12.15L190.78-12.15Q190.78-16.15 192.28-19.23 193.78-22.3 196.53-23.98 199.28-25.65 202.88-25.65L202.88-25.65Q204.88-25.65 206.6-24.93 208.33-24.2 210.18-22.6L210.18-22.6 208.18-20.8Q207.03-21.95 205.8-22.45 204.58-22.95 202.88-22.95L202.88-22.95Q198.73-22.95 196.25-19.98 193.78-17 193.78-12L193.78-12Q193.78-7.4 196.1-4.88 198.43-2.35 202.73-2.35L202.73-2.35Q206.38-2.35 210.63-4.7L210.63-4.7 211.93-2.6Q209.88-1.2 207.4-0.43 204.93 0.35 202.48 0.35L202.48 0.35ZM233.68 0.4Q232.73-0.35 232.15-1.25 231.58-2.15 231.08-3.6L231.08-3.6Q230.08-1.65 228.1-0.58 226.13 0.5 223.33 0.5L223.33 0.5Q219.38 0.5 217-1.6 214.63-3.7 214.63-7.3L214.63-7.3Q214.63-11.1 217.3-13.2 219.98-15.3 224.88-15.3L224.88-15.3 230.68-15.3 230.68-17.1Q230.68-20.1 229.38-21.55 228.08-23 225.38-23L225.38-23Q223.38-23 221.28-22.28 219.18-21.55 217.53-20.3L217.53-20.3 216.18-22.5Q218.03-24.05 220.45-24.88 222.88-25.7 225.43-25.7L225.43-25.7Q229.48-25.7 231.58-23.63 233.68-21.55 233.68-17.65L233.68-17.65 233.68-7.2Q233.68-3.35 235.63-1.25L235.63-1.25 233.68 0.4ZM223.38-2.2Q226.73-2.2 228.7-4.05 230.68-5.9 230.68-8.85L230.68-8.85 230.68-12.6 225.58-12.6Q221.33-12.6 219.48-11.38 217.63-10.15 217.63-7.35L217.63-7.35Q217.63-4.85 219.13-3.53 220.63-2.2 223.38-2.2L223.38-2.2Z" opacity="1" transform="matrix(1,0,0,1,0,0)" fill="#2ecbcb" class="undefined-text-0" data-fill-palette-color="primary" id="text-0"></path></svg></g></svg></g></svg></g></svg></g><g transform="matrix(1,0,0,1,58.939506724365685,0)"><svg viewBox="0 0 277.6409865512686 277.6409865512686" height="277.6409865512686" width="277.6409865512686"><g><svg></svg></g><g id="icon-0"><svg viewBox="0 0 277.6409865512686 277.6409865512686" height="277.6409865512686" width="277.6409865512686"><g><path d="M0 138.82c0-76.668 62.152-138.82 138.82-138.82 76.668 0 138.82 62.152 138.821 138.82 0 76.668-62.152 138.82-138.821 138.821-76.668 0-138.82-62.152-138.82-138.821zM138.82 272.577c73.872 0 133.757-59.885 133.757-133.757 0-73.872-59.885-133.757-133.757-133.756-73.872 0-133.757 59.885-133.756 133.756 0 73.872 59.885 133.757 133.756 133.757z" data-fill-palette-color="accent" fill="#07d5d0" stroke="transparent"></path></g><g transform="matrix(1,0,0,1,54.63527633123954,85.24418033632102)"><svg viewBox="0 0 168.37043388878953 107.15262587862657" height="107.15262587862657" width="168.37043388878953"><g><svg version="1.1" xmlns="http://www.w3.org/2000/svg" xmlns:xlink="http://www.w3.org/1999/xlink" x="0" y="0" viewBox="0 0 100 63.64099884033203" enable-background="new 0 0 100 63.641" xml:space="preserve" width="168.37043388878953" height="107.15262587862657" class="icon-s-0" data-fill-palette-color="accent" id="s-0"><path fill="#07d5d0" d="M86.366 36.364L86.366 36.364h-6.819c-2.51 0-4.546-2.033-4.546-4.544 0-2.509 2.036-4.546 4.546-4.546h6.819c2.511 0 4.546-2.037 4.546-4.544 0-2.512-2.035-4.546-4.546-4.546s-4.546-2.037-4.546-4.546c0-2.509 2.035-4.546 4.546-4.546 0.313 0 0.615 0.032 0.912 0.093C94.373 9.665 100 15.512 100 22.73 100 30.259 93.897 36.364 86.366 36.364z" data-fill-palette-color="accent"></path><path fill="#07d5d0" d="M63.636 27.274H59.09 43.183 13.636c-2.509 0-4.543 2.037-4.543 4.546 0 2.511 2.034 4.544 4.543 4.544h4.546 9.09 6.819 9.092 6.819 9.087 4.546c7.532 0 13.639 6.108 13.639 13.638 0 7.219-5.627 13.065-12.722 13.545-0.298 0.062-0.6 0.094-0.917 0.094-2.511 0-4.546-2.038-4.546-4.546 0-2.513 2.035-4.546 4.546-4.546s4.546-2.038 4.546-4.547c0-2.508-2.035-4.546-4.546-4.546H59.09h-9.087-6.819-9.092-6.819-9.09-4.546C6.105 45.456 0 39.352 0 31.82c0-7.216 5.626-13.063 12.72-13.545 0.297-0.059 0.605-0.091 0.916-0.091l0 0h29.547H59.09h4.546c2.511 0 4.546-2.037 4.546-4.546 0-2.509-2.035-4.546-4.546-4.546S59.09 7.058 59.09 4.546C59.09 2.037 61.125 0 63.636 0c0.317 0 0.619 0.035 0.917 0.093 7.095 0.479 12.722 6.326 12.722 13.545C77.274 21.167 71.168 27.274 63.636 27.274z" data-fill-palette-color="accent"></path></svg></g></svg></g></svg></g></svg></g><g></g></svg></g><defs></defs></svg><rect width="271.3597340237643" height="247.2" fill="none" stroke="none" visibility="hidden"></rect></g></svg></g></svg>