<?xml version="1.0" encoding="UTF-8" standalone="no"?>
<svg xmlns="http://www.w3.org/2000/svg" version="1.1" xmlns:xlink="http://www.w3.org/1999/xlink" xmlns:svgjs="http://svgjs.dev/svgjs" width="1000" height="750" viewBox="0 0 1000 750"><rect width="1000" height="750" fill="#000000"></rect><g transform="matrix(0.834,0,0,0.834,83,114.375)"><svg viewBox="0 0 512 320" data-background-color="#ffffff" preserveAspectRatio="xMidYMid meet" height="625" width="1000" xmlns="http://www.w3.org/2000/svg" xmlns:xlink="http://www.w3.org/1999/xlink"><g id="tight-bounds" transform="matrix(1,0,0,1,0,0)"><svg viewBox="0 0 512 320" height="320" width="512"><g><svg></svg></g><g><svg viewBox="0 0 512 320" height="320" width="512"><g><path xmlns="http://www.w3.org/2000/svg" d="M96 160c0-88.366 71.634-160 160-160 88.366 0 160 71.634 160 160 0 88.366-71.634 160-160 160-88.366 0-160-71.634-160-160z" fill="#ffffff" fill-rule="nonzero" stroke="none" stroke-width="1" stroke-linecap="butt" stroke-linejoin="miter" stroke-miterlimit="10" stroke-dasharray="" stroke-dashoffset="0" font-family="none" font-weight="none" font-size="none" text-anchor="none" style="mix-blend-mode: normal" data-fill-palette-color="tertiary"></path></g><g transform="matrix(1,0,0,1,160.50323893988468,80)"><svg viewBox="0 0 190.99352212023066 160" height="160" width="190.99352212023066"><g><svg viewBox="0 0 204.8 171.56602818902152" height="160" width="190.99352212023066"><g transform="matrix(1,0,0,1,0,128.6753360649165)"><svg viewBox="0 0 204.8 42.890692124105016" height="42.890692124105016" width="204.8"><g id="textblocktransform"><svg viewBox="0 0 204.8 42.890692124105016" height="42.890692124105016" width="204.8" id="textblock"><g><svg viewBox="0 0 204.8 42.890692124105016" height="42.890692124105016" width="204.8"><g transform="matrix(1,0,0,1,0,0)"><svg width="204.8" viewBox="1.4500000476837158 -34.599998474121094 167.5800018310547 35.099998474121094" height="42.890692124105016" data-palette-color="#ffffff"><path d="M8.6 0.5L8.6 0.5Q7.2 0.5 5.93 0.28 4.65 0.05 3.65-0.73 2.65-1.5 2.05-3 1.45-4.5 1.45-7.1L1.45-7.1Q1.45-9.7 2-11.33 2.55-12.95 3.5-13.83 4.45-14.7 5.65-15 6.85-15.3 8.1-15.3L8.1-15.3Q8.9-15.3 9.98-15.15 11.05-15 11.8-14.65L11.8-14.65Q11.8-14.65 11.8-15.35 11.8-16.05 11.8-16.98 11.8-17.9 11.8-18.6L11.8-18.6Q11.8-19.8 11.43-20.43 11.05-21.05 10.38-21.33 9.7-21.6 8.7-21.6L8.7-21.6Q6.75-21.6 4.95-21.25 3.15-20.9 2.05-20.45L2.05-20.45Q1.7-21.05 1.6-21.68 1.5-22.3 1.5-22.8L1.5-22.8Q1.5-23.15 1.63-23.55 1.75-23.95 2.05-24.15L2.05-24.15Q2.7-24.55 4.75-25.03 6.8-25.5 9.65-25.5L9.65-25.5Q12.9-25.5 14.38-24.15 15.85-22.8 15.85-19.4L15.85-19.4 15.85-16.75Q15.85-13.9 15.83-11.03 15.8-8.15 15.75-5.63 15.7-3.1 15.55-1.2L15.55-1.2Q14.55-0.6 12.8-0.05 11.05 0.5 8.6 0.5ZM9-2.9L9-2.9Q9.8-2.9 10.55-3.15 11.3-3.4 11.6-3.75L11.6-3.75Q11.7-4.55 11.73-5.95 11.75-7.35 11.78-8.9 11.8-10.45 11.8-11.8L11.8-11.8Q11.3-12.05 10.63-12.15 9.95-12.25 9.45-12.25L9.45-12.25Q8.65-12.25 7.98-12.08 7.3-11.9 6.8-11.38 6.3-10.85 6-9.85 5.7-8.85 5.7-7.2L5.7-7.2Q5.7-5.85 5.93-5 6.15-4.15 6.6-3.68 7.05-3.2 7.65-3.05 8.25-2.9 9-2.9ZM20 0L20 0 20-23.15Q20-24.1 20.35-24.48 20.7-24.85 21.6-24.93 22.5-25 24.15-25L24.15-25 24.15-0.8Q24.15-0.4 23.97-0.25 23.8-0.1 22.95-0.05 22.1 0 20 0ZM21.95-28.45L21.95-28.45Q21-28.5 20.45-29.18 19.9-29.85 19.9-31.6L19.9-31.6Q19.95-32.95 20.5-33.77 21.05-34.6 22.25-34.6L22.25-34.6Q23.4-34.6 23.85-33.95 24.3-33.3 24.25-31.7L24.25-31.7Q24.25-30.2 23.67-29.33 23.1-28.45 21.95-28.45ZM29.34 0L29.34 0 29.34-23.25Q30.79-24.3 32.54-24.9 34.29-25.5 36.14-25.5L36.14-25.5Q38.09-25.5 38.87-24.98 39.64-24.45 39.64-23.4L39.64-23.4Q39.64-23 39.54-22.33 39.44-21.65 39.19-21L39.19-21Q38.64-21.3 38.04-21.45 37.44-21.6 36.79-21.6L36.79-21.6Q35.94-21.6 35.07-21.33 34.19-21.05 33.49-20.5L33.49-20.5 33.44-0.8Q33.44-0.4 33.27-0.25 33.09-0.1 32.24-0.05 31.39 0 29.34 0ZM48.44 0.5L48.44 0.5Q46.54 0.5 45.07 0.03 43.59-0.45 42.59-1.8 41.59-3.15 41.09-5.73 40.59-8.3 40.59-12.5L40.59-12.5Q40.59-19.35 42.79-22.43 44.99-25.5 48.89-25.5L48.89-25.5Q51.54-25.5 53.27-24.4 54.99-23.3 55.84-20.5 56.69-17.7 56.69-12.65L56.69-12.65Q56.69-5.65 54.59-2.58 52.49 0.5 48.44 0.5ZM48.54-2.95L48.54-2.95Q49.64-2.95 50.47-3.73 51.29-4.5 51.79-6.6 52.29-8.7 52.29-12.6L52.29-12.6Q52.29-16.6 51.89-18.63 51.49-20.65 50.74-21.35 49.99-22.05 48.74-22.05L48.74-22.05Q47.64-22.05 46.79-21.28 45.94-20.5 45.47-18.4 44.99-16.3 44.99-12.4L44.99-12.4Q44.99-9.35 45.24-7.45 45.49-5.55 45.92-4.58 46.34-3.6 47.04-3.28 47.74-2.95 48.54-2.95ZM60.29 0L60.29 0 60.29-23.8Q61.29-24.25 62.64-24.63 63.99-25 65.44-25.25 66.89-25.5 68.24-25.5L68.24-25.5Q70.84-25.5 72.39-24.83 73.94-24.15 74.59-22.7 75.24-21.25 75.24-18.8L75.24-18.8 75.24-0.8Q75.24-0.4 75.04-0.25 74.84-0.1 73.99-0.05 73.14 0 71.04 0L71.04 0 71.04-17.6Q71.04-19.95 70.49-20.95 69.94-21.95 68.09-21.95L68.09-21.95Q67.24-21.95 66.19-21.75 65.14-21.55 64.34-21.05L64.34-21.05 64.34-0.8Q64.34-0.4 64.17-0.25 63.99-0.1 63.14-0.05 62.29 0 60.29 0ZM85.74 0.5L85.74 0.5Q84.34 0.5 83.06 0.28 81.79 0.05 80.79-0.73 79.79-1.5 79.19-3 78.59-4.5 78.59-7.1L78.59-7.1Q78.59-9.7 79.14-11.33 79.69-12.95 80.64-13.83 81.59-14.7 82.79-15 83.99-15.3 85.24-15.3L85.24-15.3Q86.04-15.3 87.11-15.15 88.19-15 88.94-14.65L88.94-14.65Q88.94-14.65 88.94-15.35 88.94-16.05 88.94-16.98 88.94-17.9 88.94-18.6L88.94-18.6Q88.94-19.8 88.56-20.43 88.19-21.05 87.51-21.33 86.84-21.6 85.84-21.6L85.84-21.6Q83.89-21.6 82.09-21.25 80.29-20.9 79.19-20.45L79.19-20.45Q78.84-21.05 78.74-21.68 78.64-22.3 78.64-22.8L78.64-22.8Q78.64-23.15 78.76-23.55 78.89-23.95 79.19-24.15L79.19-24.15Q79.84-24.55 81.89-25.03 83.94-25.5 86.79-25.5L86.79-25.5Q90.04-25.5 91.51-24.15 92.99-22.8 92.99-19.4L92.99-19.4 92.99-16.75Q92.99-13.9 92.96-11.03 92.94-8.15 92.89-5.63 92.84-3.1 92.69-1.2L92.69-1.2Q91.69-0.6 89.94-0.05 88.19 0.5 85.74 0.5ZM86.14-2.9L86.14-2.9Q86.94-2.9 87.69-3.15 88.44-3.4 88.74-3.75L88.74-3.75Q88.84-4.55 88.86-5.95 88.89-7.35 88.91-8.9 88.94-10.45 88.94-11.8L88.94-11.8Q88.44-12.05 87.76-12.15 87.09-12.25 86.59-12.25L86.59-12.25Q85.79-12.25 85.11-12.08 84.44-11.9 83.94-11.38 83.44-10.85 83.14-9.85 82.84-8.85 82.84-7.2L82.84-7.2Q82.84-5.85 83.06-5 83.29-4.15 83.74-3.68 84.19-3.2 84.79-3.05 85.39-2.9 86.14-2.9ZM104.54 0.5L104.54 0.5Q101.54 0.5 99.94-0.4 98.34-1.3 97.71-3.15 97.09-5 97.09-7.8L97.09-7.8 97.09-24.2Q97.09-24.6 97.24-24.75 97.39-24.9 98.26-24.95 99.14-25 101.24-25L101.24-25 101.24-7.45Q101.24-5.85 101.51-4.88 101.79-3.9 102.51-3.48 103.24-3.05 104.59-3.05L104.59-3.05Q105.29-3.05 106.24-3.25 107.19-3.45 107.99-3.95L107.99-3.95 107.99-24.2Q107.99-24.6 108.16-24.75 108.34-24.9 109.16-24.95 109.99-25 112.04-25L112.04-25 112.04-1.3Q110.59-0.5 108.59 0 106.59 0.5 104.54 0.5ZM123.38 0.5L123.38 0.5Q121.28 0.5 120.26-0.43 119.23-1.35 118.93-3.03 118.63-4.7 118.63-6.95L118.63-6.95 118.63-21.5 115.23-21.5Q115.23-23.1 115.26-23.83 115.28-24.55 115.48-24.78 115.68-25 116.08-25L116.08-25 118.63-25 118.63-32.6Q118.63-33.35 118.96-33.63 119.28-33.9 120.16-33.95 121.03-34 122.68-34L122.68-34 122.68-25 127.78-25Q127.78-23.45 127.76-22.7 127.73-21.95 127.56-21.73 127.38-21.5 126.98-21.5L126.98-21.5 122.68-21.5 122.68-6.95Q122.68-5.9 122.76-4.98 122.83-4.05 123.21-3.53 123.58-3 124.48-3L124.48-3Q125.33-3 125.98-3.18 126.63-3.35 127.38-3.75L127.38-3.75Q127.48-3.35 127.58-2.85 127.68-2.35 127.68-1.7L127.68-1.7Q127.68-0.8 127.01-0.33 126.33 0.15 125.36 0.33 124.38 0.5 123.38 0.5ZM131.13 0L131.13 0 131.13-23.15Q131.13-24.1 131.48-24.48 131.83-24.85 132.73-24.93 133.63-25 135.28-25L135.28-25 135.28-0.8Q135.28-0.4 135.11-0.25 134.93-0.1 134.08-0.05 133.23 0 131.13 0ZM133.08-28.45L133.08-28.45Q132.13-28.5 131.58-29.18 131.03-29.85 131.03-31.6L131.03-31.6Q131.08-32.95 131.63-33.77 132.18-34.6 133.38-34.6L133.38-34.6Q134.53-34.6 134.98-33.95 135.43-33.3 135.38-31.7L135.38-31.7Q135.38-30.2 134.81-29.33 134.23-28.45 133.08-28.45ZM146.58 0.5L146.58 0.5Q144.73 0.5 143.35 0.03 141.98-0.45 141.03-1.78 140.08-3.1 139.6-5.55 139.13-8 139.13-11.95L139.13-11.95Q139.13-16.45 139.93-19.15 140.73-21.85 142.05-23.23 143.38-24.6 144.95-25.05 146.53-25.5 148.08-25.5L148.08-25.5Q149.83-25.5 151.03-24.88 152.23-24.25 152.23-23.25L152.23-23.25Q152.23-22.85 152.15-22.25 152.08-21.65 151.83-21L151.83-21Q151.23-21.35 150.28-21.63 149.33-21.9 148.28-21.9L148.28-21.9Q147.43-21.9 146.55-21.58 145.68-21.25 144.93-20.25 144.18-19.25 143.75-17.25 143.33-15.25 143.33-11.95L143.33-11.95Q143.33-9.3 143.6-7.58 143.88-5.85 144.43-4.88 144.98-3.9 145.83-3.5 146.68-3.1 147.78-3.1L147.78-3.1Q148.98-3.1 150.05-3.48 151.13-3.85 151.78-4.25L151.78-4.25Q151.98-3.6 152.05-3.08 152.13-2.55 152.13-2.05L152.13-2.05Q152.13-1 150.58-0.25 149.03 0.5 146.58 0.5ZM161.78 0.5L161.78 0.5Q160.38 0.5 159.1 0.28 157.83 0.05 156.83-0.73 155.83-1.5 155.23-3 154.63-4.5 154.63-7.1L154.63-7.1Q154.63-9.7 155.18-11.33 155.73-12.95 156.68-13.83 157.63-14.7 158.83-15 160.03-15.3 161.28-15.3L161.28-15.3Q162.08-15.3 163.15-15.15 164.23-15 164.98-14.65L164.98-14.65Q164.98-14.65 164.98-15.35 164.98-16.05 164.98-16.98 164.98-17.9 164.98-18.6L164.98-18.6Q164.98-19.8 164.6-20.43 164.23-21.05 163.55-21.33 162.88-21.6 161.88-21.6L161.88-21.6Q159.93-21.6 158.13-21.25 156.33-20.9 155.23-20.45L155.23-20.45Q154.88-21.05 154.78-21.68 154.68-22.3 154.68-22.8L154.68-22.8Q154.68-23.15 154.8-23.55 154.93-23.95 155.23-24.15L155.23-24.15Q155.88-24.55 157.93-25.03 159.98-25.5 162.83-25.5L162.83-25.5Q166.08-25.5 167.55-24.15 169.03-22.8 169.03-19.4L169.03-19.4 169.03-16.75Q169.03-13.9 169-11.03 168.98-8.15 168.93-5.63 168.88-3.1 168.73-1.2L168.73-1.2Q167.73-0.6 165.98-0.05 164.23 0.5 161.78 0.5ZM162.18-2.9L162.18-2.9Q162.98-2.9 163.73-3.15 164.48-3.4 164.78-3.75L164.78-3.75Q164.88-4.55 164.9-5.95 164.93-7.35 164.95-8.9 164.98-10.45 164.98-11.8L164.98-11.8Q164.48-12.05 163.8-12.15 163.13-12.25 162.63-12.25L162.63-12.25Q161.83-12.25 161.15-12.08 160.48-11.9 159.98-11.38 159.48-10.85 159.18-9.85 158.88-8.85 158.88-7.2L158.88-7.2Q158.88-5.85 159.1-5 159.33-4.15 159.78-3.68 160.23-3.2 160.83-3.05 161.43-2.9 162.18-2.9Z" opacity="1" transform="matrix(1,0,0,1,0,0)" fill="#000000" class="undefined-text-0" data-fill-palette-color="quaternary" id="text-0"></path></svg></g></svg></g></svg></g></svg></g><g transform="matrix(1,0,0,1,43.12506348448686,0)"><svg viewBox="0 0 118.5498730310263 118.5498730310263" height="118.5498730310263" width="118.5498730310263"><g><svg></svg></g><g id="icon-0"><svg viewBox="0 0 118.5498730310263 118.5498730310263" height="118.5498730310263" width="118.5498730310263"><g><path xmlns="http://www.w3.org/2000/svg" d="M35.565 118.55c-19.642 0-35.565-15.923-35.565-35.565v-47.42c0-19.642 15.923-35.565 35.565-35.565h47.42c19.642 0 35.565 15.923 35.565 35.565v47.42c0 19.642-15.923 35.565-35.565 35.565z" fill="#ffffff" fill-rule="nonzero" stroke="none" stroke-width="1" stroke-linecap="butt" stroke-linejoin="miter" stroke-miterlimit="10" stroke-dasharray="" stroke-dashoffset="0" font-family="none" font-weight="none" font-size="none" text-anchor="none" style="mix-blend-mode: normal" data-fill-palette-color="accent"></path></g><g transform="matrix(1,0,0,1,23.709974606205265,47.01572588163018)"><svg viewBox="0 0 71.12992381861577 24.518421267765927" height="24.518421267765927" width="71.12992381861577"><g><svg version="1.0" xmlns="http://www.w3.org/2000/svg" xmlns:xlink="http://www.w3.org/1999/xlink" x="0" y="0" viewBox="0 0 100.00035095214844 34.47003173828125" enable-background="new 0 0 100 34.47" xml:space="preserve" width="71.12992381861577" height="24.518421267765927" class="icon-s-0" data-fill-palette-color="quaternary" id="s-0"><path d="M99.925 5.721c-0.716-2.606-7.372-2.83-10.05-1.938-9.739 3.239-19.479 6.479-29.22 9.719L26.845 0l-3.568 3.803 14.468 17.376c-9.326 3.224-26.407 9.177-29.507 10.207-2.669 0.889 17.247 3.715 21.813 2.956 0 0 35.082-11.443 50.593-16.604 3.987-1.326 7.976-2.652 11.963-3.979C95.275 12.872 100.702 8.549 99.925 5.721z" fill="#000000" data-fill-palette-color="quaternary"></path><polygon points="2.71,19.027 0,21.531 7.187,29.915 17.602,26.247 " fill="#000000" data-fill-palette-color="quaternary"></polygon></svg></g></svg></g></svg></g></svg></g><g></g></svg></g></svg></g></svg></g><defs></defs></svg><rect width="512" height="320" fill="none" stroke="none" visibility="hidden"></rect></g></svg></g></svg>